<?xml version="1.0" standalone="no"?>
<!DOCTYPE svg PUBLIC "-//W3C//DTD SVG 20010904//EN"
 "http://www.w3.org/TR/2001/REC-SVG-20010904/DTD/svg10.dtd">
<svg version="1.0" xmlns="http://www.w3.org/2000/svg"
 width="793.000000pt" height="835.000000pt" viewBox="0 0 793.000000 835.000000"
 preserveAspectRatio="xMidYMid meet">

<g transform="translate(0.000000,835.000000) scale(0.100000,-0.100000)"
fill="#000000" stroke="none">
<path d="M7325 7420 c10 -11 20 -20 23 -20 3 0 -3 9 -13 20 -10 11 -20 20 -23
20 -3 0 3 -9 13 -20z"/>
<path d="M5250 7399 c-124 -10 -263 -40 -375 -79 -376 -133 -664 -434 -739
-773 -15 -67 -31 -245 -17 -191 14 56 81 163 143 229 128 138 317 232 542 270
129 22 347 20 493 -5 336 -58 762 -275 1109 -567 55 -46 70 -53 60 -26 -7 17
8 6 73 -54 36 -35 17 -27 -24 8 -20 18 -38 29 -41 27 -3 -3 45 -49 106 -103
61 -53 113 -95 114 -94 2 2 64 96 138 209 74 113 255 387 402 609 147 222 265
405 262 408 -2 3 -12 -7 -22 -22 -9 -14 -21 -22 -25 -18 -5 5 -55 1 -111 -9
-71 -12 -158 -17 -282 -18 -99 0 -177 -2 -174 -5 2 -3 85 -5 184 -5 152 -1
249 6 362 25 12 2 22 1 22 -1 0 -3 -48 -77 -106 -165 -79 -117 -110 -157 -119
-149 -6 5 -14 9 -16 7 -2 -1 -3 0 -1 3 2 3 11 5 19 5 9 0 18 6 21 14 3 10 0
12 -12 8 -9 -4 -15 -3 -12 1 3 5 -4 16 -15 25 -10 9 -19 13 -19 8 0 -4 -12 -6
-26 -3 -19 3 -25 1 -20 -7 4 -6 13 -8 19 -4 7 4 6 0 -2 -10 -15 -18 -26 -23
-16 -7 12 19 -7 10 -26 -12 l-19 -23 -6 22 c-3 13 -11 20 -16 17 -5 -3 -3 -13
6 -22 14 -17 16 -21 16 -43 0 -8 6 -7 18 2 15 13 16 12 3 -3 -7 -10 -17 -15
-22 -12 -5 3 -9 0 -9 -6 0 -6 -5 -8 -12 -3 -13 7 -56 5 -71 -4 -5 -3 0 -15 10
-26 14 -17 14 -19 2 -9 -14 10 -20 10 -31 -2 -9 -8 -20 -11 -29 -5 -10 5 -25
0 -45 -16 -16 -13 -23 -24 -16 -25 6 0 12 4 12 10 0 5 11 9 24 8 14 -1 22 -6
20 -10 -3 -5 -10 -6 -15 -3 -5 4 -9 2 -9 -4 0 -5 -12 -8 -26 -6 -19 2 -28 -3
-31 -16 -3 -11 -10 -19 -15 -19 -5 0 -6 -5 -2 -12 4 -7 3 -8 -4 -4 -6 4 -9 13
-5 21 3 10 -1 15 -12 15 -11 0 -15 -5 -11 -16 3 -8 2 -12 -4 -9 -6 3 -10 1
-10 -6 0 -7 -12 -2 -26 12 -25 23 -26 23 -15 2 21 -41 8 -58 -23 -28 -18 19
-23 19 -23 0 0 -8 4 -12 8 -9 4 2 10 0 14 -6 3 -5 -2 -10 -12 -10 -15 0 -15
-2 -3 -10 9 -6 20 -5 30 3 9 7 8 4 -3 -9 -10 -12 -17 -28 -15 -35 2 -8 -3 -13
-9 -12 -7 2 -13 -2 -13 -8 0 -8 -5 -8 -15 1 -21 17 -19 29 8 40 20 8 19 9 -8
8 -39 -2 -50 -8 -34 -19 10 -6 10 -9 2 -9 -9 0 -10 -7 -3 -25 6 -15 6 -26 -1
-30 -5 -4 -7 -11 -4 -16 3 -5 -1 -6 -10 -2 -12 4 -13 8 -5 13 14 9 2 19 -29
25 -12 2 -18 -2 -17 -13 1 -11 -8 -16 -32 -18 -18 0 -35 -4 -38 -7 -4 -3 12
-5 34 -3 22 2 47 -1 54 -5 13 -9 11 -10 -29 -14 -13 -1 -30 -8 -40 -16 -9 -8
-14 -9 -10 -2 4 6 2 15 -4 19 -8 5 -10 -1 -7 -19 3 -16 1 -25 -6 -24 -6 1 -10
-4 -9 -10 2 -7 -5 -13 -15 -13 -11 0 -24 -10 -31 -22 -6 -13 -10 -15 -7 -6 3
9 -2 19 -11 22 -10 4 -13 2 -10 -8 3 -7 -1 -23 -9 -35 -13 -19 -13 -21 0 -21
8 0 17 -4 20 -9 4 -5 -4 -7 -16 -3 -16 4 -19 2 -14 -9 4 -8 0 -5 -8 6 -15 17
-15 20 -1 28 9 4 13 13 10 18 -10 15 -38 -6 -40 -29 -1 -12 2 -19 7 -16 4 3 8
-1 9 -8 1 -26 8 -50 15 -56 4 -4 4 1 1 10 -3 10 -1 20 5 24 6 4 8 3 5 -3 -3
-5 1 -22 9 -38 20 -40 10 -42 -32 -9 -250 197 -554 382 -764 464 -19 7 -44 20
-55 27 -19 12 -18 13 6 13 14 0 31 -6 38 -12 10 -11 11 -9 5 5 -4 11 1 26 12
40 12 14 13 17 3 9 -16 -12 -29 -7 -29 10 0 5 4 7 8 4 5 -3 9 1 9 9 0 8 -4 15
-9 15 -5 0 -7 4 -4 9 3 5 -2 8 -12 7 -9 0 -16 5 -14 12 1 6 -4 12 -10 12 -9 0
-8 3 2 9 8 6 19 7 25 3 5 -3 4 2 -4 12 -10 12 -16 13 -21 6 -5 -8 -9 -7 -13 4
-4 9 -2 16 3 16 6 0 10 9 10 21 0 13 4 18 13 13 6 -4 9 -4 5 1 -4 4 -4 13 2
19 6 8 1 12 -16 14 -38 3 -44 10 -32 37 6 14 16 21 22 18 6 -4 6 0 -1 9 -7 8
-10 18 -6 22 4 4 -1 4 -11 0 -10 -4 -13 -9 -7 -13 6 -4 6 -12 2 -20 -15 -23
-25 28 -11 54 9 17 9 28 1 41 -6 11 -11 14 -11 6 0 -7 -5 -10 -10 -7 -6 4 -8
11 -5 16 3 5 -1 6 -9 3 -9 -3 -16 -1 -16 6 0 6 -4 9 -9 6 -5 -4 -7 3 -4 14 3
11 1 20 -4 20 -5 0 -10 7 -10 15 0 8 5 12 10 8 5 -3 6 3 2 16 -4 15 -2 21 8
21 8 0 17 8 21 18 3 9 8 22 11 28 4 7 -17 12 -62 13 -97 3 -92 11 8 11 157 -1
450 -37 644 -80 50 -11 99 -19 110 -19 34 1 -192 48 -355 74 -129 20 -456 48
-510 44 -8 -1 -58 -5 -110 -10z m113 -16 c-13 -2 -33 -2 -45 0 -13 2 -3 4 22
4 25 0 35 -2 23 -4z m142 -35 c-3 -8 -12 -15 -19 -15 -8 0 -12 6 -9 14 3 7 9
10 14 7 5 -3 9 0 9 7 0 7 2 10 5 7 3 -3 3 -12 0 -20z m40 -178 c4 -7 -3 -7
-19 0 -14 6 -29 10 -32 9 -3 0 -9 3 -12 7 -4 4 -1 4 6 0 6 -4 12 -2 12 4 0 12
34 -3 45 -20z m-15 -41 c0 -5 -9 -4 -19 3 -11 7 -17 16 -14 20 5 10 33 -10 33
-23z m-12 -44 c-3 -3 -9 2 -12 12 -6 14 -5 15 5 6 7 -7 10 -15 7 -18z m62 -82
c0 -19 -13 -9 -16 12 -1 8 2 13 7 9 5 -3 9 -12 9 -21z m1607 -75 c2 -17 0 -19
-7 -8 -5 8 -6 18 -4 22 8 12 10 10 11 -14z m41 -47 c-9 -23 -104 -161 -111
-161 -4 0 3 15 17 33 13 17 36 56 51 85 14 28 31 52 36 52 6 0 9 -4 7 -9z
m-150 -56 c-3 -3 -9 2 -12 12 -6 14 -5 15 5 6 7 -7 10 -15 7 -18z m-1561 -1
c-3 -3 -12 -4 -19 -1 -8 3 -5 6 6 6 11 1 17 -2 13 -5z m1574 -151 c-20 -38
-81 -117 -81 -107 0 6 7 17 15 24 8 7 15 18 15 24 0 10 50 76 58 76 1 0 -2 -8
-7 -17z m-98 -148 c-3 -9 -8 -14 -10 -11 -3 3 -2 9 2 15 9 16 15 13 8 -4z
m-403 -15 c-8 -5 -19 -10 -25 -10 -5 0 -3 5 5 10 8 5 20 10 25 10 6 0 3 -5 -5
-10z m-116 -106 c3 -8 2 -12 -4 -9 -6 3 -10 10 -10 16 0 14 7 11 14 -7z m121
-254 c10 -11 16 -20 13 -20 -3 0 -13 9 -23 20 -10 11 -16 20 -13 20 3 0 13 -9
23 -20z"/>
<path d="M7360 7396 c0 -2 8 -10 18 -17 15 -13 16 -12 3 4 -13 16 -21 21 -21
13z"/>
<path d="M5530 7346 c0 -2 8 -10 18 -17 15 -13 16 -12 3 4 -13 16 -21 21 -21
13z"/>
<path d="M5522 7318 c2 -9 -1 -16 -5 -15 -16 4 -28 -32 -17 -50 10 -16 10 -15
5 4 -4 16 -1 23 15 28 23 7 24 13 9 35 -8 13 -9 13 -7 -2z"/>
<path d="M6275 7280 c17 -4 41 -8 55 -8 22 0 22 1 -5 8 -16 4 -41 8 -55 8 -22
0 -22 -1 5 -8z"/>
<path d="M6368 7263 c6 -2 18 -2 25 0 6 3 1 5 -13 5 -14 0 -19 -2 -12 -5z"/>
<path d="M2953 7248 c-15 -20 -25 -38 -20 -38 3 0 12 11 21 25 17 26 16 35 -1
13z"/>
<path d="M6445 7250 c58 -13 252 -40 278 -39 22 1 -172 32 -268 43 -47 5 -48
5 -10 -4z"/>
<path d="M5520 7239 c0 -5 10 -9 22 -9 12 0 18 3 14 7 -10 11 -36 12 -36 2z"/>
<path d="M6788 7203 c18 -2 45 -2 60 0 15 2 0 4 -33 4 -33 0 -45 -2 -27 -4z"/>
<path d="M2905 7170 c-9 -16 -13 -30 -11 -30 3 0 12 14 21 30 9 17 13 30 11
30 -3 0 -12 -13 -21 -30z"/>
<path d="M2832 7032 c-74 -160 -130 -322 -161 -467 -125 -587 -42 -1170 229
-1606 211 -340 525 -612 1005 -868 261 -139 383 -191 1125 -483 567 -222 854
-420 999 -689 79 -145 111 -277 111 -449 0 -150 -21 -244 -82 -368 -41 -84
-65 -118 -127 -181 -115 -118 -253 -201 -431 -261 -247 -84 -600 -92 -904 -20
-453 106 -936 359 -1308 684 l-78 67 -82 -78 c-46 -42 -195 -186 -333 -318
-206 -199 -619 -590 -634 -602 -9 -7 121 -164 233 -280 549 -572 1265 -916
2091 -1005 156 -17 632 -17 795 0 737 77 1413 394 1885 883 419 434 634 882
701 1459 33 285 4 662 -70 908 -62 205 -157 415 -259 571 -67 102 -214 278
-288 346 -258 236 -677 491 -1109 674 -205 86 -278 115 -265 103 9 -8 159 -75
259 -116 22 -9 37 -18 34 -21 -10 -10 -54 -12 -66 -2 -10 8 -12 7 -10 -3 2 -7
-3 -15 -11 -18 -8 -3 -11 0 -7 7 4 6 2 11 -3 11 -6 0 -11 -4 -11 -10 0 -5 -7
-6 -17 -3 -10 4 -14 2 -10 -4 4 -6 -3 -8 -20 -5 -18 3 -24 1 -19 -7 4 -6 3
-11 -3 -11 -5 0 -12 6 -15 13 -3 6 -4 3 -3 -8 2 -11 9 -19 18 -17 8 2 10 0 6
-5 -5 -4 -13 -9 -18 -9 -22 -3 -23 -5 -9 -15 13 -9 12 -10 -2 -5 -10 3 -24 -2
-33 -10 -9 -9 -23 -13 -32 -10 -14 6 -14 4 -2 -10 15 -19 21 -47 8 -38 -5 3
-6 10 -3 16 5 7 2 8 -5 4 -7 -5 -10 -15 -7 -23 3 -8 1 -11 -4 -8 -6 3 -10 13
-10 21 0 8 -4 14 -8 14 -5 0 -7 -15 -5 -32 l3 -33 -10 33 c-11 34 -23 44 -18
15 1 -10 -1 -24 -6 -32 -5 -8 -4 -16 3 -21 9 -5 9 -11 -3 -22 -8 -9 -12 -19
-8 -24 4 -5 0 -3 -10 4 -14 11 -17 10 -23 -7 -3 -12 -14 -21 -22 -21 -9 0 -14
-3 -11 -6 4 -3 3 -18 -2 -33 -8 -27 -5 -29 92 -77 55 -27 102 -53 105 -57 3
-5 -26 7 -64 27 -237 119 -406 179 -963 340 -318 92 -590 198 -732 284 -328
201 -507 334 -692 512 -401 387 -605 835 -609 1335 0 88 -3 134 -7 110 -9 -54
-7 -344 3 -338 4 2 7 -6 7 -19 0 -13 2 -32 4 -43 2 -11 1 -14 -1 -7 -3 6 -8
12 -12 12 -8 0 -7 -47 2 -57 4 -3 2 -12 -4 -20 -9 -10 -8 -13 5 -13 14 0 15
-4 6 -20 -13 -24 -7 -26 13 -5 13 13 16 10 21 -21 4 -19 4 -39 0 -46 -4 -6 -3
-8 3 -5 14 9 22 -26 20 -81 -2 -38 3 -47 26 -43 5 1 5 -8 2 -20 -5 -15 -4 -19
4 -15 6 4 15 -4 21 -19 13 -33 13 -38 0 -30 -6 4 -7 -1 -3 -11 5 -13 8 -14 11
-5 8 23 32 -49 26 -75 -5 -20 -2 -24 17 -25 23 0 23 -1 4 -9 -17 -7 -11 -12
12 -9 11 1 25 -30 18 -41 -4 -6 -1 -9 6 -8 7 2 15 -5 17 -16 3 -12 0 -16 -8
-11 -9 6 -9 3 -1 -13 15 -28 14 -31 -9 -27 -12 2 -18 0 -15 -6 4 -5 10 -7 15
-4 5 3 11 1 15 -5 4 -6 12 -7 18 -3 8 4 8 2 -1 -9 -10 -13 -10 -17 2 -21 9 -4
20 1 25 11 6 9 11 12 11 5 0 -6 -5 -15 -10 -18 -8 -5 -7 -11 1 -21 6 -8 9 -17
5 -21 -3 -3 -6 -1 -6 5 0 7 -5 12 -11 12 -5 0 -7 -5 -4 -10 3 -6 -1 -13 -9
-16 -9 -3 -13 -10 -10 -15 3 -5 0 -9 -6 -9 -6 0 -8 -5 -4 -12 5 -8 0 -9 -14
-6 -29 8 -39 -10 -18 -30 15 -15 16 -15 16 1 0 9 4 17 9 17 5 0 7 -9 4 -20 -6
-23 -4 -23 -38 -10 -15 6 -25 16 -22 23 2 6 0 22 -4 35 -6 15 -5 22 4 22 8 0
7 3 -3 9 -8 6 -18 7 -22 5 -4 -3 -8 4 -8 16 0 12 -4 19 -8 16 -11 -7 -3 -66 9
-66 5 0 9 -8 9 -18 0 -10 -6 -19 -13 -19 -13 0 -15 5 -19 47 -3 24 -8 25 -34
4 -10 -8 -13 -13 -6 -9 6 3 12 1 12 -5 0 -6 4 -9 9 -5 13 7 5 -35 -9 -49 -5
-5 -10 -6 -10 -2 0 5 -8 2 -17 -5 -16 -13 -17 -12 -4 3 7 10 17 15 22 12 5 -3
9 0 9 5 0 6 -9 11 -20 11 -11 0 -20 -5 -20 -10 0 -7 -16 -9 -41 -6 -34 4 -38
2 -28 -10 6 -7 16 -11 22 -7 5 3 8 2 4 -3 -9 -15 20 -46 39 -42 12 2 20 -4 22
-17 4 -17 2 -18 -11 -6 -17 13 -41 6 -32 -9 3 -5 -7 -3 -21 5 -19 9 -33 11
-45 4 -11 -6 -20 -5 -24 1 -8 13 -25 13 -25 -1 0 -5 6 -7 13 -3 9 5 9 4 1 -5
-9 -10 -17 -10 -34 -1 -12 6 -24 9 -28 6 -3 -3 0 -6 7 -6 7 0 9 -5 5 -11 -4
-7 -1 -10 7 -7 8 3 20 -2 27 -11 8 -9 11 -11 8 -4 -4 6 -2 14 3 18 6 3 17 -8
26 -25 15 -30 9 -40 -12 -19 -7 7 -9 3 -6 -15 4 -20 10 -25 27 -22 12 2 30 -2
41 -10 10 -8 17 -14 14 -15 -2 0 -12 -2 -21 -4 -10 -2 -18 1 -18 7 0 5 -9 7
-20 3 -15 -5 -23 0 -31 17 -5 13 -19 24 -30 25 -21 2 -22 -2 -9 -32 8 -18 9
-18 9 -2 1 10 6 15 11 12 6 -4 8 -10 5 -15 -3 -5 -1 -11 3 -14 10 -6 8 -40 -3
-67 -6 -17 19 -34 36 -23 5 3 9 0 9 -7 0 -11 -15 -9 -54 7 -14 5 -17 4 -12 -4
13 -22 16 -55 5 -69 -9 -10 -8 -13 4 -13 8 0 17 6 20 13 3 6 4 2 4 -10 -2 -30
-18 -29 -51 2 l-28 26 25 -5 c21 -4 25 -1 20 12 -19 61 -29 80 -52 100 l-26
23 28 -12 c20 -9 30 -10 35 -2 4 6 16 13 27 16 16 4 14 5 -7 6 -14 0 -28 -4
-30 -9 -2 -6 -11 -4 -23 5 -11 9 -14 14 -7 10 6 -3 12 -4 12 0 0 3 -10 10 -22
15 l-23 9 23 0 c12 1 22 5 22 11 0 5 -7 7 -15 4 -11 -5 -13 -2 -9 10 3 9 10
13 15 10 5 -3 6 2 3 11 -6 14 -8 14 -24 0 -12 -11 -16 -28 -14 -62 2 -26 8
-51 13 -56 5 -5 7 -16 4 -23 -3 -8 -2 -22 2 -31 5 -10 9 -29 11 -43 4 -46 55
-203 73 -229 10 -15 18 -33 18 -41 0 -30 65 -160 77 -153 6 3 8 3 4 -1 -10
-12 13 -67 25 -59 6 3 7 1 3 -5 -4 -7 7 -32 25 -57 18 -25 30 -47 27 -50 -15
-15 -168 279 -217 418 -29 82 -62 207 -76 287 -4 19 -11 58 -16 85 -16 89 -23
483 -10 591 24 199 103 540 122 528 5 -3 6 3 2 12 -5 13 -3 15 7 9 9 -5 11 -4
6 4 -10 15 7 65 61 180 24 51 42 95 40 97 -2 2 -22 -36 -45 -84z m304 -1167
c-3 -8 -1 -15 5 -15 21 0 40 -30 37 -57 -2 -19 1 -27 10 -25 8 1 11 -2 6 -9
-5 -9 -13 -5 -26 11 -13 16 -15 26 -8 35 8 9 4 11 -15 7 -15 -2 -25 0 -25 7 0
7 5 9 10 6 6 -3 10 -2 10 4 0 5 -5 11 -11 13 -10 3 -3 38 8 38 3 0 3 -7 -1
-15z m42 3 c-2 -7 4 -13 12 -13 8 0 20 -4 27 -8 6 -4 18 -4 27 -1 11 4 16 0
16 -12 0 -16 -2 -17 -10 -4 -8 13 -10 12 -11 -5 -1 -11 -1 -22 -1 -25 0 -4
-10 -6 -23 -6 -20 0 -23 4 -19 21 4 15 -2 25 -21 35 -18 10 -22 16 -13 22 17
10 18 10 16 -4z m-141 -23 c0 -8 -4 -12 -9 -9 -4 3 -8 9 -8 15 0 5 4 9 8 9 5
0 9 -7 9 -15z m-122 -5 c-3 -5 2 -10 11 -10 10 0 15 -3 11 -6 -10 -10 -39 5
-32 16 3 5 8 10 11 10 3 0 2 -4 -1 -10z m88 -15 c-7 -21 -12 -19 -10 4 0 11 5
18 9 15 4 -3 5 -11 1 -19z m112 -26 c5 -6 2 -9 -9 -9 -9 0 -25 7 -34 16 -15
15 -14 16 8 9 14 -4 29 -11 35 -16z m-92 -6 c3 -5 -5 -8 -18 -8 -13 0 -21 3
-18 8 2 4 10 7 18 7 8 0 16 -3 18 -7z m42 -11 c-3 -3 -11 0 -18 7 -9 10 -8 11
6 5 10 -3 15 -9 12 -12z m209 -19 c4 -10 4 -14 0 -10 -4 4 -16 -1 -26 -10 -18
-16 -18 -16 -12 0 3 9 10 17 16 17 5 0 6 5 3 10 -3 6 -2 10 3 10 6 0 13 -8 16
-17z m-427 -19 c-9 -9 -28 6 -21 18 4 6 10 6 17 -1 6 -6 8 -13 4 -17z m36 8
c15 -17 15 -18 -6 -19 -17 -2 -19 0 -7 7 10 7 11 10 3 10 -7 0 -13 5 -13 10 0
14 5 13 23 -8z m112 8 c3 -5 2 -10 -4 -10 -5 0 -13 5 -16 10 -3 6 -2 10 4 10
5 0 13 -4 16 -10z m26 -13 c-10 -9 -11 -8 -5 6 3 10 9 15 12 12 3 -3 0 -11 -7
-18z m134 13 c3 -5 1 -10 -4 -10 -6 0 -11 5 -11 10 0 6 2 10 4 10 3 0 8 -4 11
-10z m-275 -73 c0 -5 -4 -5 -10 -2 -5 3 -10 14 -10 23 0 15 2 15 10 2 5 -8 10
-19 10 -23z m127 11 c2 -18 0 -20 -7 -8 -5 8 -10 10 -10 4 0 -6 -7 -11 -15
-11 -13 0 -13 3 2 19 21 24 28 23 30 -4z m263 7 c0 -8 -4 -15 -10 -15 -5 0 -7
7 -4 15 4 8 8 15 10 15 2 0 4 -7 4 -15z m-424 -77 c5 -7 3 -8 -6 -3 -9 5 -10
2 -5 -14 5 -17 3 -20 -12 -15 -14 5 -15 4 -4 -4 8 -6 21 -8 30 -6 9 3 6 -1 -7
-8 -19 -9 -25 -9 -32 2 -5 8 -6 19 -2 25 4 5 7 13 8 18 3 15 4 17 13 17 6 0
13 -5 17 -12z m35 -35 c13 -17 13 -17 -6 -3 -11 8 -22 16 -24 17 -2 2 0 3 6 3
6 0 17 -8 24 -17z m-140 -47 c15 -17 11 -46 -6 -40 -10 4 -15 19 -14 48 1 22
3 32 6 21 3 -11 9 -24 14 -29z m74 -46 c3 -6 -1 -7 -9 -4 -18 7 -21 14 -7 14
6 0 13 -4 16 -10z m65 -30 c0 -5 -5 -10 -11 -10 -5 0 -7 5 -4 10 3 6 8 10 11
10 2 0 4 -4 4 -10z m-56 -35 c-4 -8 -8 -15 -10 -15 -2 0 -4 7 -4 15 0 8 4 15
10 15 5 0 7 -7 4 -15z m-31 -24 c3 -14 1 -18 -9 -14 -15 6 -18 16 -7 26 9 10
10 9 16 -12z m3417 -511 c8 -5 11 -10 5 -10 -5 0 -17 5 -25 10 -8 5 -10 10 -5
10 6 0 17 -5 25 -10z m-3206 -50 c14 -22 31 -40 38 -40 6 0 8 -3 5 -6 -8 -9
55 -86 157 -194 l81 -85 -78 75 c-100 96 -260 290 -239 290 5 0 21 -18 36 -40z
m386 -405 c13 -14 21 -25 18 -25 -2 0 -15 11 -28 25 -13 14 -21 25 -18 25 2 0
15 -11 28 -25z"/>
<path d="M3200 5846 c0 -2 8 -10 18 -17 15 -13 16 -12 3 4 -13 16 -21 21 -21
13z"/>
<path d="M7270 6981 c0 -8 -8 -10 -22 -6 -18 5 -20 4 -8 -4 13 -10 13 -11 0
-11 -13 0 -13 -2 0 -9 10 -7 18 -4 28 10 8 11 11 23 8 26 -3 4 -6 1 -6 -6z"/>
<path d="M7047 6883 c-3 -5 5 -8 18 -8 13 0 21 3 18 8 -2 4 -10 7 -18 7 -8 0
-16 -3 -18 -7z"/>
<path d="M6981 6857 c-1 -12 -6 -16 -13 -11 -10 5 -10 4 -1 -6 16 -17 26 -8
20 17 -4 17 -5 17 -6 0z"/>
<path d="M5640 6820 c0 -5 5 -10 11 -10 5 0 7 5 4 10 -3 6 -8 10 -11 10 -2 0
-4 -4 -4 -10z"/>
<path d="M6838 6763 c7 -3 16 -2 19 1 4 3 -2 6 -13 5 -11 0 -14 -3 -6 -6z"/>
<path d="M6795 6740 c3 -5 8 -10 11 -10 2 0 4 5 4 10 0 6 -5 10 -11 10 -5 0
-7 -4 -4 -10z"/>
<path d="M6705 6630 c-3 -5 -1 -10 4 -10 6 0 11 5 11 10 0 6 -2 10 -4 10 -3 0
-8 -4 -11 -10z"/>
<path d="M2689 6502 c-3 -20 -2 -29 4 -23 5 5 7 19 5 32 -3 20 -5 19 -9 -9z"/>
<path d="M6492 6501 c-12 -10 -22 -21 -22 -25 0 -10 39 17 44 31 7 17 3 16
-22 -6z"/>
<path d="M2699 6413 c-13 -16 -12 -17 4 -4 16 13 21 21 13 21 -2 0 -10 -8 -17
-17z"/>
<path d="M2700 6355 c0 -8 4 -15 10 -15 5 0 7 7 4 15 -4 8 -8 15 -10 15 -2 0
-4 -7 -4 -15z"/>
<path d="M2663 6325 c-3 -9 -3 -19 1 -22 3 -4 6 1 6 10 0 8 6 18 13 20 9 4 9
6 -1 6 -7 1 -15 -6 -19 -14z"/>
<path d="M2975 6309 c-4 -6 -5 -12 -2 -15 2 -3 7 2 10 11 7 17 1 20 -8 4z"/>
<path d="M2656 6247 c3 -10 9 -15 12 -12 3 3 0 11 -7 18 -10 9 -11 8 -5 -6z"/>
<path d="M2900 6053 c0 -10 4 -14 8 -8 4 6 11 13 16 18 5 4 2 7 -7 7 -10 0
-17 -8 -17 -17z"/>
<path d="M2993 6041 c0 -11 5 -18 9 -15 4 3 5 11 1 19 -7 21 -12 19 -10 -4z"/>
<path d="M2903 6013 c4 -17 0 -23 -11 -24 -13 0 -13 -2 3 -8 11 -5 27 -5 36 0
13 7 18 3 23 -17 7 -28 29 -28 34 1 3 11 0 15 -7 10 -6 -3 -8 -11 -5 -17 4 -7
2 -8 -4 -4 -7 4 -12 14 -12 22 0 8 -9 23 -20 34 -12 12 -20 15 -20 8 0 -9 -4
-8 -11 2 -9 12 -10 11 -6 -7z m31 -12 c3 -5 -1 -11 -9 -14 -9 -4 -12 -1 -8 9
6 16 10 17 17 5z"/>
<path d="M2800 6000 c-8 -15 -8 -18 3 -14 8 3 14 11 14 19 0 20 -4 19 -17 -5z"/>
<path d="M3063 5998 c-12 -20 -14 -48 -3 -48 6 0 9 3 9 8 -1 4 0 9 1 12 4 12
8 40 5 40 -2 0 -7 -6 -12 -12z"/>
<path d="M2710 5990 c-8 -5 -12 -12 -9 -15 4 -3 12 1 19 10 14 17 11 19 -10 5z"/>
<path d="M2836 5963 c-6 -14 -5 -15 5 -6 7 7 10 15 7 18 -3 3 -9 -2 -12 -12z"/>
<path d="M3111 5947 c-13 -21 -12 -21 5 -5 10 10 16 20 13 22 -3 3 -11 -5 -18
-17z"/>
<path d="M1687 5663 l-298 -298 84 -80 c134 -129 698 -649 713 -658 10 -6 43
11 102 51 l87 60 -3 83 c-4 149 -32 702 -38 777 l-6 73 -150 127 c-82 70 -156
130 -166 135 -20 10 -3 -5 176 -159 125 -109 132 -117 132 -152 0 -20 7 -147
15 -281 8 -135 17 -315 20 -400 4 -86 8 -166 11 -178 2 -14 0 -23 -7 -23 -7 0
-35 -17 -63 -38 -99 -75 -97 -74 -121 -49 -11 12 -60 57 -108 100 -48 43 -85
82 -82 86 2 5 -5 17 -18 27 l-22 19 19 -22 c11 -13 15 -23 10 -23 -15 0 -125
115 -118 123 12 12 24 8 24 -9 0 -9 5 -12 12 -8 7 4 8 3 4 -4 -4 -7 -2 -12 4
-12 6 0 14 -10 19 -22 4 -12 18 -23 32 -25 13 -2 29 -4 34 -5 6 -1 12 -13 13
-26 3 -36 32 -64 59 -59 18 3 23 0 23 -16 0 -26 28 -57 45 -51 7 3 16 -4 20
-15 6 -21 25 -29 25 -12 0 11 26 9 37 -3 4 -4 4 -7 -2 -6 -20 4 -35 0 -35 -10
0 -5 6 -9 13 -7 6 1 11 -4 9 -12 -2 -11 1 -11 20 2 13 8 22 20 21 26 -2 6 4
11 12 11 8 0 19 9 25 19 13 25 13 61 0 61 -5 0 -10 7 -10 16 0 14 3 14 15 4 8
-7 15 -19 15 -28 0 -8 3 -13 6 -9 4 3 3 14 -1 24 -14 31 -14 43 0 43 8 0 17 4
20 10 3 6 -1 7 -9 4 -9 -3 -16 -2 -16 4 0 6 6 13 13 15 6 3 1 6 -13 7 -14 1
-19 4 -12 7 6 2 10 9 6 14 -3 5 1 9 10 9 8 0 17 -6 19 -12 3 -7 6 3 6 22 1 26
-2 31 -9 20 -9 -13 -10 -13 -11 0 -1 8 -1 18 0 22 2 15 -28 -4 -32 -20 -4 -14
-6 -13 -12 6 -4 12 -11 22 -16 22 -5 0 -9 10 -9 21 0 17 5 20 25 17 13 -3 22
-2 20 2 -3 4 -18 10 -35 13 -16 4 -30 11 -30 17 0 6 5 8 12 4 7 -4 8 -3 4 4
-9 16 -36 3 -29 -14 3 -10 -2 -14 -18 -13 -13 0 -18 3 -11 6 15 6 16 33 0 33
-6 0 -9 -3 -5 -6 11 -11 -22 -35 -45 -32 -23 3 -35 38 -12 38 8 0 13 -5 11
-11 -3 -18 20 -22 26 -5 4 9 1 15 -6 13 -7 -1 -11 3 -10 8 1 6 -11 10 -27 10
-19 0 -27 -5 -25 -15 1 -8 -2 -21 -8 -27 -6 -9 -5 -13 4 -13 10 0 9 -4 -3 -16
-24 -24 -41 -8 -23 20 14 21 14 25 0 36 -12 10 -19 10 -27 2 -16 -16 -31 -15
-22 1 4 6 4 9 -1 5 -4 -4 -15 -2 -23 5 -13 10 -14 9 -3 -10 6 -13 9 -23 5 -23
-4 0 1 -9 12 -21 19 -21 19 -21 -10 -17 -16 1 -31 9 -32 16 -1 7 0 8 3 2 8
-17 21 -11 16 8 -3 14 -15 18 -54 18 -39 0 -48 -3 -44 -14 4 -12 3 -13 -10 -2
-12 10 -16 9 -21 -4 -5 -14 -9 -14 -23 -4 -14 12 -15 11 -2 -5 9 -11 18 -14
25 -8 7 6 11 2 12 -15 2 -32 -15 -22 -86 50 -38 40 -49 56 -37 56 11 0 15 -4
11 -12 -5 -8 -2 -9 10 -5 11 4 15 3 11 -4 -4 -6 2 -13 14 -16 12 -3 21 -9 21
-13 0 -13 37 -19 48 -8 6 6 24 11 40 13 16 1 35 5 41 9 6 4 11 2 11 -4 0 -6 5
-8 11 -5 13 8 7 16 -16 19 -17 2 -48 53 -40 66 3 4 -1 10 -9 13 -9 4 -13 0
-11 -11 2 -9 4 -18 5 -19 2 -2 3 -7 4 -12 0 -5 4 -13 9 -17 10 -11 9 -24 -4
-24 -5 0 -8 4 -4 9 3 5 -4 13 -16 16 -15 5 -20 13 -17 30 3 12 -1 31 -9 41 -7
10 -13 13 -13 8 0 -6 5 -15 12 -22 14 -14 0 -16 -21 -3 -16 11 -5 54 12 45 7
-3 0 6 -15 19 -15 14 -24 28 -20 33 4 4 0 3 -8 -2 -8 -5 -17 -9 -20 -10 -3 0
-13 -4 -23 -9 -13 -5 -24 -2 -35 9 -16 16 -15 17 11 7 26 -10 40 2 15 13 -7 3
-3 3 10 0 13 -3 22 -1 22 6 0 6 -4 9 -9 5 -5 -3 -12 -1 -16 5 -4 6 -11 8 -16
5 -5 -4 -9 1 -9 10 0 10 5 13 13 9 7 -4 9 -3 4 2 -13 14 -31 11 -39 -6 -5 -11
-7 -9 -7 8 -1 12 -6 22 -13 22 -6 0 -8 3 -5 7 4 3 2 12 -5 20 -6 7 -8 16 -5
19 3 3 11 -6 19 -20 10 -19 17 -23 28 -16 13 8 12 10 -2 10 -10 0 -18 4 -18
10 0 5 8 6 17 3 15 -6 16 -5 3 8 -14 16 -21 18 -63 22 -22 2 -35 27 -15 27 5
0 6 6 3 13 -3 6 2 2 11 -10 22 -30 36 -29 24 1 -5 13 -6 26 -3 29 3 3 -6 3
-19 0 -18 -4 -20 -3 -8 6 12 9 10 11 -10 11 -43 0 -59 3 -54 11 2 4 1 9 -3 12
-5 2 -3 2 4 1 7 -2 15 1 18 6 4 6 1 10 -5 10 -6 0 -8 5 -5 10 5 8 11 7 21 -1
12 -10 13 -9 7 7 -6 17 -5 18 13 5 18 -14 18 -14 2 4 -14 15 -20 16 -33 5 -8
-7 -17 -11 -19 -9 -3 2 94 104 214 227 120 122 215 222 211 222 -4 0 -141
-134 -304 -297z m-134 -170 c-7 -3 -13 -12 -13 -21 0 -10 -10 -22 -22 -27 -13
-6 -22 -16 -21 -23 2 -7 -4 -9 -15 -5 -14 5 -15 3 -4 -8 6 -7 12 -18 12 -23 0
-6 -8 -2 -16 9 -15 19 -15 19 -12 1 2 -10 -3 -21 -11 -24 -9 -3 -11 0 -6 8 5
9 4 11 -3 6 -9 -5 -9 -13 -2 -26 14 -27 113 -120 128 -120 6 0 12 -7 12 -16 0
-8 5 -12 10 -9 6 3 10 -2 10 -12 0 -10 4 -14 8 -8 9 13 35 19 28 6 -4 -5 -2
-12 4 -16 6 -4 8 -10 5 -15 -3 -5 -1 -11 5 -15 5 -3 10 -1 10 5 0 6 4 9 10 5
5 -3 7 -12 4 -19 -3 -8 4 -16 15 -19 22 -5 30 -37 10 -37 -6 0 -9 6 -6 14 3 7
0 13 -7 12 -7 0 -73 55 -145 123 l-132 124 72 73 c40 41 75 71 78 67 4 -3 0
-8 -6 -10z m247 -295 c0 -5 -9 -8 -21 -8 -11 0 -17 -4 -14 -10 3 -5 0 -10 -8
-10 -21 0 -27 11 -14 25 13 13 57 15 57 3z m-85 -7 c3 -5 2 -12 -3 -15 -5 -3
-9 1 -9 9 0 17 3 19 12 6z m73 -25 c-20 -15 -25 -31 -6 -20 7 5 8 3 4 -5 -5
-7 -14 -10 -21 -7 -7 2 -18 -1 -24 -7 -6 -6 -11 -7 -11 -3 0 11 52 56 65 56 6
0 2 -7 -7 -14z m17 -46 c3 -5 -1 -10 -10 -10 -9 0 -13 5 -10 10 3 6 8 10 10
10 2 0 7 -4 10 -10z m245 -85 c0 -1 -10 -10 -22 -21 -19 -15 -20 -16 -9 -1 8
10 9 17 3 17 -6 0 -14 -5 -17 -10 -4 -6 -11 -7 -17 -4 -12 8 33 32 50 26 6 -2
12 -5 12 -7z m170 -38 c0 -8 -7 -14 -15 -14 -25 0 -17 17 13 26 1 1 2 -5 2
-12z m-86 -8 c-3 -6 -1 -15 6 -19 9 -5 9 -9 1 -14 -6 -4 -11 -2 -11 3 0 6 -4
11 -10 11 -5 0 -7 -8 -3 -17 5 -15 3 -16 -7 -6 -10 9 -10 15 -2 26 7 8 9 17 5
20 -3 4 1 7 11 7 10 0 14 -5 10 -11z m43 5 c-3 -3 -12 -4 -19 -1 -8 3 -5 6 6
6 11 1 17 -2 13 -5z m-259 -39 c-3 -3 -9 2 -12 12 -6 14 -5 15 5 6 7 -7 10
-15 7 -18z m156 7 c2 -4 -5 -9 -17 -9 -17 -2 -19 0 -7 7 18 12 18 12 24 2z
m141 -2 c-3 -5 -12 -10 -18 -10 -7 0 -6 4 3 10 19 12 23 12 15 0z m55 -217 c0
-12 -2 -12 -15 1 -8 8 -15 17 -15 20 0 3 7 3 15 0 8 -4 15 -13 15 -21z"/>
<path d="M2775 5950 c3 -6 1 -10 -4 -10 -16 0 -13 -17 3 -23 11 -4 13 -1 9 10
-4 11 -2 14 5 9 7 -4 12 -3 12 2 0 6 -7 13 -16 16 -8 3 -12 2 -9 -4z"/>
<path d="M2870 5944 c-19 -8 -26 -13 -14 -11 13 3 21 -1 21 -10 0 -10 -8 -13
-24 -10 -18 3 -23 0 -23 -16 0 -16 3 -17 15 -7 10 8 29 10 53 6 29 -4 39 -2
39 8 0 8 -6 12 -14 9 -7 -3 -16 2 -19 11 -8 22 3 33 18 18 15 -15 28 -15 28
-1 0 5 -4 7 -10 4 -5 -3 -10 -1 -10 4 0 14 -17 13 -60 -5z"/>
<path d="M3075 5930 c3 -5 8 -10 11 -10 2 0 4 5 4 10 0 6 -5 10 -11 10 -5 0
-7 -4 -4 -10z"/>
<path d="M2730 5901 c8 -6 11 -11 5 -11 -5 0 -2 -7 8 -14 16 -13 15 -14 -10
-19 -16 -3 -31 0 -35 6 -6 9 -8 9 -8 1 0 -6 7 -17 15 -24 8 -7 15 -8 15 -3 0
5 7 10 15 11 8 1 21 3 29 4 7 1 11 9 9 19 -3 10 -11 15 -19 12 -9 -3 -14 0
-12 7 2 7 -4 15 -12 17 -13 4 -13 3 0 -6z"/>
<path d="M2950 5896 c0 -2 7 -7 16 -10 8 -3 12 -2 9 4 -6 10 -25 14 -25 6z"/>
<path d="M2805 5880 c-4 -6 -11 -7 -17 -4 -7 4 -8 2 -4 -5 4 -6 12 -9 17 -6
20 13 8 -15 -13 -29 -15 -11 -17 -16 -8 -16 8 0 24 7 34 15 15 11 16 17 8 28
-7 8 -9 17 -5 20 3 4 4 7 0 7 -3 0 -9 -5 -12 -10z"/>
<path d="M2851 5886 c12 -10 60 -16 54 -6 -3 5 -18 10 -32 10 -15 0 -24 -2
-22 -4z"/>
<path d="M2840 5840 c0 -5 5 -10 11 -10 5 0 7 5 4 10 -3 6 -8 10 -11 10 -2 0
-4 -4 -4 -10z"/>
<path d="M2805 5820 c-10 -17 11 -28 41 -22 13 2 31 -1 39 -8 9 -8 15 -8 15
-2 0 12 -38 27 -59 23 -8 -1 -17 3 -21 9 -6 9 -9 9 -15 0z"/>
<path d="M2690 5799 c0 -5 5 -7 10 -4 6 3 10 8 10 11 0 2 -4 4 -10 4 -5 0 -10
-5 -10 -11z"/>
<path d="M2740 5800 c-12 -7 -10 -9 7 -7 12 0 19 5 17 9 -6 10 -6 10 -24 -2z"/>
<path d="M2664 5758 c-4 -7 -2 -8 4 -4 7 4 12 3 12 -3 0 -5 -5 -11 -11 -13 -7
-2 -10 -10 -7 -18 3 -11 9 -9 25 7 20 20 20 20 32 1 7 -11 15 -17 19 -14 3 4
0 12 -6 18 -15 15 -16 31 0 22 6 -4 8 -3 5 3 -9 14 -65 14 -73 1z"/>
<path d="M2735 5660 c-3 -5 -1 -10 4 -10 6 0 11 5 11 10 0 6 -2 10 -4 10 -3 0
-8 -4 -11 -10z"/>
<path d="M2760 5579 c0 -5 5 -7 10 -4 6 3 10 8 10 11 0 2 -4 4 -10 4 -5 0 -10
-5 -10 -11z"/>
<path d="M1696 5425 c-3 -8 -1 -15 3 -15 5 0 11 7 15 15 3 8 1 15 -3 15 -5 0
-11 -7 -15 -15z"/>
<path d="M1790 5256 c0 -2 7 -7 16 -10 8 -3 12 -2 9 4 -6 10 -25 14 -25 6z"/>
<path d="M1835 5210 c3 -5 8 -10 11 -10 2 0 4 5 4 10 0 6 -5 10 -11 10 -5 0
-7 -4 -4 -10z"/>
<path d="M912 4861 c-188 -192 -342 -353 -342 -357 0 -4 17 8 37 27 l37 34
-30 -37 c-18 -23 -35 -35 -46 -32 -46 13 -14 -24 120 -137 81 -69 229 -193
329 -278 l182 -152 338 227 c186 125 373 251 415 278 43 28 78 54 78 57 0 7
-757 712 -770 717 -3 1 -160 -155 -348 -347z m487 204 c37 -32 98 -91 138
-129 65 -63 70 -71 55 -83 -15 -12 -14 -13 6 -3 20 10 28 8 48 -11 14 -13 22
-29 20 -36 -3 -7 1 -10 8 -7 7 3 28 -12 47 -33 19 -21 37 -38 41 -38 3 0 62
-52 130 -115 112 -103 123 -116 107 -127 -22 -16 -52 -6 -44 15 4 12 2 12 -8
4 -8 -7 -18 -8 -22 -4 -5 4 -5 1 -1 -5 4 -7 3 -13 -3 -13 -5 0 -17 -3 -27 -7
-12 -4 -15 -2 -12 8 3 8 10 13 16 12 7 -2 9 4 5 14 -4 11 -2 14 5 9 15 -9 63
4 56 15 -3 5 -14 4 -26 -2 -11 -6 -18 -7 -15 -1 4 5 -1 18 -9 28 -13 16 -15
16 -10 2 3 -10 1 -20 -5 -23 -5 -4 -8 -1 -7 5 2 7 -13 18 -32 25 -30 11 -34
20 -8 16 11 -1 5 22 -7 31 -6 5 -5 8 3 8 10 0 9 5 -3 17 -14 13 -18 14 -25 3
-7 -11 -11 -11 -24 -1 -9 8 -16 10 -16 5 0 -5 -6 -2 -13 6 -14 17 -38 20 -50
5 -5 -6 -7 0 -4 13 3 15 0 22 -9 22 -8 0 -14 5 -14 10 0 6 -12 10 -26 10 -21
0 -25 -4 -21 -19 3 -12 -1 -22 -11 -26 -9 -3 -13 -3 -9 1 4 4 2 13 -4 21 -7 8
-8 13 -1 13 5 0 13 7 16 16 5 13 4 14 -7 6 -8 -7 -16 -10 -18 -7 -3 2 -6 -6
-6 -18 -1 -12 -7 -23 -12 -25 -5 -2 -8 -9 -5 -17 3 -7 1 -16 -5 -19 -6 -4 -7
-14 -4 -23 6 -15 5 -16 -9 -3 -12 11 -13 17 -4 22 7 4 13 23 14 43 1 21 -3 33
-8 30 -6 -4 -8 -10 -5 -14 2 -5 -9 -11 -25 -14 -21 -5 -28 -11 -24 -22 3 -8 2
-15 -4 -15 -21 0 -22 31 0 39 15 6 17 9 7 13 -18 7 -50 -34 -40 -51 4 -6 17
-13 28 -14 11 0 20 -6 20 -12 0 -7 -12 -6 -34 4 -18 8 -33 22 -33 31 0 12 -2
13 -9 1 -5 -8 -7 -20 -4 -27 3 -8 -2 -11 -14 -9 -10 2 -20 4 -22 4 -3 1 3 7
13 14 17 12 13 53 -4 42 -4 -2 -7 6 -7 19 0 13 -10 33 -22 45 -11 11 -21 25
-21 30 0 5 -8 12 -17 15 -15 6 -15 4 2 -14 26 -29 5 -25 -28 6 -27 25 -29 25
-34 6 -4 -17 -8 -18 -18 -9 -13 13 -10 31 5 22 4 -3 13 2 20 10 7 8 10 16 6
16 -23 5 -32 3 -43 -11 -6 -8 -15 -12 -19 -7 -4 4 -2 7 4 7 7 0 12 5 12 11 0
5 -5 7 -11 4 -6 -4 -9 0 -7 11 2 13 -2 18 -14 16 -10 -2 -18 2 -18 8 0 6 4 9
9 6 4 -3 17 1 27 9 19 15 18 15 -3 34 -12 10 -40 21 -62 25 -42 6 -59 20 -40
32 8 5 9 3 4 -6 -6 -10 -3 -12 13 -8 14 4 20 2 15 -5 -4 -7 0 -8 13 -3 10 5
24 9 31 9 6 0 10 9 8 19 -2 10 4 22 13 28 15 8 15 9 -3 10 l-20 1 20 9 c19 8
19 9 -2 9 -13 1 -23 -3 -23 -9 0 -5 -8 -2 -18 8 -19 17 -19 32 -1 32 5 0 8 -6
7 -12 -2 -7 4 -11 12 -10 8 2 23 6 34 8 27 5 31 13 12 20 -9 3 -23 1 -30 -5
-11 -10 -18 -7 -30 11 -9 12 -16 17 -16 10 0 -6 -7 -12 -16 -12 -8 0 -13 -4
-10 -8 2 -4 -9 -14 -26 -21 -22 -10 -27 -16 -17 -22 11 -7 11 -9 -1 -9 -9 0
-44 -28 -78 -61 -35 -34 -64 -60 -67 -58 -2 2 62 72 143 154 l147 150 39 -35
c22 -19 69 -62 105 -95z m-164 -159 c18 -13 18 -14 -8 -9 -15 3 -30 9 -33 14
-8 14 20 10 41 -5z m-275 -29 c0 -2 -17 -19 -37 -38 l-38 -34 34 38 c33 34 41
42 41 34z m243 -44 c-7 -2 -19 -2 -25 0 -7 3 -2 5 12 5 14 0 19 -2 13 -5z
m-323 -36 c0 -2 -17 -19 -37 -38 l-38 -34 34 38 c33 34 41 42 41 34z m475 -74
c-3 -8 0 -11 6 -7 8 4 8 0 0 -14 -7 -14 -8 -23 -1 -27 5 -3 10 -12 10 -18 -1
-22 -25 28 -25 53 -1 19 -6 24 -20 22 -15 -3 -17 -1 -7 11 6 7 8 18 4 23 -4 5
3 0 16 -10 12 -11 20 -26 17 -33z m-55 12 c0 -8 -4 -15 -10 -15 -5 0 -7 7 -4
15 4 8 8 15 10 15 2 0 4 -7 4 -15z m96 -41 c-8 -22 -21 -9 -21 22 -1 21 1 22
13 10 9 -8 12 -22 8 -32z m-596 23 c0 -2 -12 -14 -27 -28 l-28 -24 24 28 c23
25 31 32 31 24z m888 -30 c8 -10 6 -13 -11 -14 -12 0 -16 1 -8 4 11 5 11 7 0
14 -8 5 -9 9 -3 9 6 0 16 -6 22 -13z m-258 -37 c0 -5 -4 -10 -10 -10 -5 0 -10
5 -10 10 0 6 5 10 10 10 6 0 10 -4 10 -10z m203 -3 c4 3 7 -1 7 -10 0 -15 -3
-15 -20 -5 -11 7 -20 17 -20 22 0 4 6 3 13 -3 8 -6 17 -8 20 -4z m48 4 c0 -3
2 -17 5 -31 3 -19 2 -21 -6 -10 -5 8 -10 11 -10 5 0 -13 -20 17 -20 31 0 11
29 16 31 5z m76 -18 c-4 -3 -1 -13 6 -22 11 -14 10 -14 -5 -2 -16 12 -16 31
-1 31 4 0 3 -3 0 -7z m-132 -23 c3 -6 -1 -7 -9 -4 -18 7 -21 14 -7 14 6 0 13
-4 16 -10z m40 -18 c-3 -3 -11 0 -18 7 -9 10 -8 11 6 5 10 -3 15 -9 12 -12z
m-985 4 c0 -2 -8 -10 -17 -17 -16 -13 -17 -12 -4 4 13 16 21 21 21 13z m760 0
c0 -2 -7 -9 -15 -16 -13 -11 -14 -10 -9 4 5 14 24 23 24 12z m68 -31 c-3 -3
-9 2 -12 12 -6 14 -5 15 5 6 7 -7 10 -15 7 -18z m147 -5 c3 -5 -1 -10 -10 -10
-9 0 -13 5 -10 10 3 6 8 10 10 10 2 0 7 -4 10 -10z m160 -8 c-3 -3 -11 0 -18
7 -9 10 -8 11 6 5 10 -3 15 -9 12 -12z m-60 -12 c3 -5 1 -10 -4 -10 -6 0 -11
5 -11 10 0 6 2 10 4 10 3 0 8 -4 11 -10z m203 -69 c10 -6 2 -16 -31 -37 -25
-16 -97 -64 -161 -106 -63 -43 -119 -78 -123 -78 -4 0 4 8 20 18 15 10 25 21
22 24 -3 3 6 9 20 12 16 4 23 11 19 18 -4 6 -3 8 3 5 13 -8 98 45 106 67 4 9
16 16 27 16 12 0 18 4 15 10 -4 6 -3 10 2 9 20 -4 24 2 12 18 -10 11 -10 14
-1 9 6 -4 12 -3 12 3 0 8 12 14 40 20 3 0 11 -3 18 -8z m-337 -235 c21 12 7
-5 -15 -19 -23 -16 -23 -15 -12 8 6 13 13 20 14 15 2 -6 8 -8 13 -4z m-136
-96 c-3 -5 -16 -15 -28 -21 -19 -9 -19 -8 3 10 28 23 34 26 25 11z m-474 -27
c13 -16 12 -17 -3 -4 -10 7 -18 15 -18 17 0 8 8 3 21 -13z m409 -18 c-7 -8
-17 -15 -23 -15 -6 0 -2 7 9 15 25 19 30 19 14 0z m-140 -89 c0 -2 -8 -10 -17
-17 -16 -13 -17 -12 -4 4 13 16 21 21 21 13z"/>
<path d="M1250 5139 c0 -13 -4 -18 -12 -13 -10 5 -10 4 -1 -6 8 -9 9 -18 3
-25 -6 -7 0 -11 18 -12 15 -1 21 1 14 4 -6 2 -10 9 -6 14 3 5 0 9 -7 9 -8 0
-6 6 4 18 10 10 14 22 10 25 -12 13 -23 7 -23 -14z"/>
<path d="M1198 5089 c9 -11 18 -19 21 -19 2 0 1 3 -2 7 -4 3 -2 12 3 18 8 9 4
13 -14 13 -22 0 -23 -2 -8 -19z"/>
<path d="M1290 4970 c0 -5 7 -7 15 -4 8 4 15 8 15 10 0 2 -7 4 -15 4 -8 0 -15
-4 -15 -10z"/>
<path d="M1240 4960 c0 -5 5 -10 11 -10 5 0 7 5 4 10 -3 6 -8 10 -11 10 -2 0
-4 -4 -4 -10z"/>
<path d="M1230 4936 c0 -2 7 -7 16 -10 8 -3 12 -2 9 4 -6 10 -25 14 -25 6z"/>
<path d="M1277 4929 c7 -7 15 -10 18 -7 3 3 -2 9 -12 12 -14 6 -15 5 -6 -5z"/>
<path d="M1265 4850 c-3 -5 -1 -10 4 -10 6 0 11 5 11 10 0 6 -2 10 -4 10 -3 0
-8 -4 -11 -10z"/>
<path d="M1295 4852 c-8 -8 16 -32 32 -32 12 0 13 3 4 13 -6 8 -9 16 -6 19 3
2 -2 5 -10 5 -8 0 -17 -3 -20 -5z"/>
<path d="M1466 4827 c3 -10 9 -15 12 -12 3 3 0 11 -7 18 -10 9 -11 8 -5 -6z"/>
<path d="M1360 4826 c0 -2 7 -6 15 -10 8 -3 15 -1 15 4 0 6 -7 10 -15 10 -8 0
-15 -2 -15 -4z"/>
<path d="M1318 4803 c7 -3 16 -2 19 1 4 3 -2 6 -13 5 -11 0 -14 -3 -6 -6z"/>
<path d="M1460 4792 c6 -12 8 -27 5 -32 -3 -6 -1 -10 4 -10 16 0 13 23 -5 46
-14 18 -15 18 -4 -4z"/>
<path d="M1368 4793 c7 -3 16 -2 19 1 4 3 -2 6 -13 5 -11 0 -14 -3 -6 -6z"/>
<path d="M1530 4781 c0 -6 -1 -14 -2 -18 -2 -3 5 -7 15 -9 21 -3 22 3 2 22 -8
9 -15 11 -15 5z"/>
<path d="M1413 4755 c0 -8 4 -15 9 -15 4 0 8 4 8 9 0 6 -4 12 -8 15 -5 3 -9
-1 -9 -9z"/>
<path d="M1443 4735 c0 -8 4 -12 9 -9 5 3 6 10 3 15 -9 13 -12 11 -12 -6z"/>
<path d="M1485 4739 c-4 -5 7 -9 24 -9 22 0 29 -4 25 -14 -3 -8 0 -17 7 -21 7
-5 10 -3 7 6 -3 9 7 18 26 25 l31 12 -35 -1 c-19 0 -45 3 -57 6 -13 3 -25 2
-28 -4z"/>
<path d="M1480 4710 c0 -5 7 -7 15 -4 8 4 15 8 15 10 0 2 -7 4 -15 4 -8 0 -15
-4 -15 -10z"/>
<path d="M1437 4686 c5 -22 24 -29 39 -13 9 9 -15 37 -31 37 -8 0 -10 -9 -8
-24z"/>
<path d="M1735 4692 c-8 -23 0 -24 18 -4 14 15 15 19 2 19 -8 0 -17 -7 -20
-15z"/>
<path d="M1920 4460 c-13 -8 -13 -10 2 -10 9 0 20 5 23 10 8 13 -5 13 -25 0z"/>
<path d="M1897 5127 c-3 -9 1 -18 9 -21 16 -6 18 2 5 22 -7 11 -9 11 -14 -1z"/>
<path d="M2007 5119 c7 -7 15 -10 18 -7 3 3 -2 9 -12 12 -14 6 -15 5 -6 -5z"/>
<path d="M5700 5122 c8 -5 26 -13 40 -16 17 -5 20 -4 10 2 -8 5 -26 13 -40 16
-17 5 -20 4 -10 -2z"/>
<path d="M2110 5090 l-25 -21 28 12 c15 7 27 16 27 21 0 11 -1 10 -30 -12z"/>
<path d="M2020 5088 c0 -6 3 -8 7 -5 3 4 12 2 18 -3 9 -7 16 -6 23 2 8 10 3
13 -19 15 -16 1 -29 -3 -29 -9z"/>
<path d="M2257 5079 c7 -7 15 -10 18 -7 3 3 -2 9 -12 12 -14 6 -15 5 -6 -5z"/>
<path d="M2275 5020 c4 -6 11 -8 16 -5 14 9 11 15 -7 15 -8 0 -12 -5 -9 -10z"/>
<path d="M2242 4978 c5 -13 38 -20 38 -8 0 4 -9 10 -21 13 -12 3 -19 1 -17 -5z"/>
<path d="M6006 4913 c-6 -14 -5 -15 5 -6 7 7 10 15 7 18 -3 3 -9 -2 -12 -12z"/>
<path d="M5916 4838 c3 -4 12 -8 20 -8 8 0 14 4 14 8 0 4 -9 8 -19 8 -11 0
-17 -4 -15 -8z"/>
<path d="M209 4172 l-166 -167 7 -159 6 -158 130 -123 c71 -68 139 -129 150
-135 19 -11 53 9 334 196 l311 209 -58 52 c-60 54 -91 70 -57 31 l19 -23 -22
19 c-13 10 -20 22 -18 27 3 4 -75 74 -172 155 -98 81 -204 169 -235 196 -31
26 -58 48 -60 48 -2 0 -78 -76 -169 -168z m298 46 c69 -57 132 -108 139 -114
8 -6 14 -15 14 -19 0 -5 -9 0 -19 9 -11 10 -25 15 -32 10 -7 -4 -10 -3 -5 4 3
6 2 13 -3 16 -5 3 -12 -1 -15 -10 -8 -21 -29 -6 -23 17 6 21 -19 53 -34 43 -5
-3 -9 -2 -8 3 4 21 -2 24 -18 12 -16 -13 -17 -12 -4 4 15 19 2 24 -17 5 -8 -8
-12 -9 -12 -1 0 6 -6 13 -12 16 -7 2 -2 2 12 0 21 -3 18 3 -25 41 -27 25 -55
46 -60 46 -6 0 -29 -18 -50 -40 -21 -22 -35 -40 -30 -40 14 0 -29 -42 -53 -51
-13 -5 -21 -13 -18 -18 6 -9 -33 -49 -49 -51 -5 0 -31 -21 -57 -46 -27 -26
-48 -44 -48 -40 0 7 292 306 298 306 2 0 60 -46 129 -102z m188 -158 c10 -11
16 -20 13 -20 -3 0 -13 9 -23 20 -10 11 -16 20 -13 20 3 0 13 -9 23 -20z m51
-41 c19 -22 19 -22 -3 -8 -13 8 -23 17 -23 21 0 12 6 9 26 -13z m-674 -72 c2
-31 0 -57 -4 -57 -4 0 -8 28 -8 62 0 76 7 73 12 -5z m749 6 c13 -16 12 -17 -3
-4 -10 7 -18 15 -18 17 0 8 8 3 21 -13z m110 -90 c13 -16 12 -17 -3 -4 -10 7
-18 15 -18 17 0 8 8 3 21 -13z m-716 -293 c10 -11 16 -20 13 -20 -3 0 -13 9
-23 20 -10 11 -16 20 -13 20 3 0 13 -9 23 -20z m75 -75 c19 -19 32 -35 29 -35
-3 0 -20 16 -39 35 -19 19 -32 35 -29 35 3 0 20 -16 39 -35z"/>
<path d="M276 4204 c-23 -23 -20 -30 4 -9 11 10 20 20 20 22 0 7 -9 2 -24 -13z"/>
<path d="M209 4133 c-13 -16 -12 -17 4 -4 9 7 17 15 17 17 0 8 -8 3 -21 -13z"/>
<path d="M570 4125 c0 -8 2 -15 4 -15 2 0 6 7 10 15 3 8 1 15 -4 15 -6 0 -10
-7 -10 -15z"/>
<path d="M3025 3722 c-71 -47 -278 -185 -460 -306 -181 -121 -351 -233 -377
-250 -26 -17 -47 -34 -45 -37 2 -8 183 -162 562 -477 l279 -234 51 54 c27 29
180 195 340 368 159 173 322 349 363 391 l73 76 -158 124 c-260 205 -488 379
-493 378 -3 0 -63 -39 -135 -87z m194 31 c25 -21 97 -78 161 -126 63 -48 119
-96 124 -105 7 -14 6 -15 -5 -4 -7 6 -23 12 -36 12 -16 0 -23 6 -23 20 0 11
-4 21 -10 21 -5 1 -14 2 -18 3 -5 0 -16 9 -26 19 -13 12 -34 17 -77 17 -40 0
-59 4 -59 13 0 8 -3 8 -8 1 -12 -18 -42 -25 -42 -10 0 8 4 16 9 18 5 2 -3 12
-17 22 l-27 20 19 -22 c12 -13 14 -22 7 -22 -7 0 -9 -5 -5 -12 4 -6 -4 -3 -18
8 -14 10 -24 22 -21 26 2 4 -2 5 -10 2 -8 -3 -14 -13 -13 -22 1 -14 -11 -18
-59 -22 -33 -3 -66 -9 -72 -13 -8 -5 -13 -3 -13 5 0 9 -3 9 -10 -2 -7 -10 -10
-11 -10 -2 0 16 -57 12 -72 -5 -7 -9 -7 -13 0 -13 6 0 12 5 14 11 2 7 9 5 17
-5 12 -14 12 -16 -1 -11 -16 6 -51 -21 -44 -34 3 -3 -8 -6 -22 -5 -17 1 -26 7
-24 15 1 8 -5 5 -13 -6 -9 -11 -18 -19 -21 -17 -13 7 -87 -56 -79 -68 2 -3
-13 -6 -33 -8 -19 -1 -33 0 -30 3 19 20 496 333 507 334 8 1 35 -16 60 -36z
m-59 -127 c0 -3 -4 -8 -10 -11 -5 -3 -10 -1 -10 4 0 6 5 11 10 11 6 0 10 -2
10 -4z m-130 -46 c6 -11 8 -20 6 -20 -3 0 -10 9 -16 20 -6 11 -8 20 -6 20 3 0
10 -9 16 -20z m314 12 c2 -4 -5 -9 -17 -9 -17 -2 -19 0 -7 7 18 12 18 12 24 2z
m-364 -28 c0 -2 -7 -4 -15 -4 -8 0 -15 4 -15 10 0 5 7 7 15 4 8 -4 15 -8 15
-10z m614 -113 c-2 -3 -12 3 -22 13 -16 17 -16 18 5 5 12 -7 20 -15 17 -18z
m31 -21 c3 -6 -1 -7 -9 -4 -18 7 -21 14 -7 14 6 0 13 -4 16 -10z m-1057 -40
c-7 -11 -20 -20 -28 -20 -10 0 -7 7 10 20 31 25 33 25 18 0z m1127 -10 c3 -5
1 -10 -4 -10 -6 0 -11 5 -11 10 0 6 2 10 4 10 3 0 8 -4 11 -10z m-1220 -50
c-3 -5 -16 -15 -28 -21 -19 -9 -19 -8 3 10 28 23 34 26 25 11z"/>
<path d="M2609 3679 l-24 -20 28 17 c15 9 27 18 27 20 0 8 -8 4 -31 -17z"/>
<path d="M1500 3655 c13 -14 26 -25 28 -25 3 0 -5 11 -18 25 -13 14 -26 25
-28 25 -3 0 5 -11 18 -25z"/>
<path d="M1049 3605 c-52 -36 -193 -133 -314 -216 -121 -82 -224 -154 -229
-159 -5 -5 111 -129 267 -287 l275 -278 361 240 c198 132 360 245 360 252 1 6
-110 103 -245 215 -359 295 -362 298 -372 298 -5 0 -51 -29 -103 -65z m170
-13 c6 -13 15 -21 20 -18 5 3 14 -1 20 -8 17 -20 -4 -30 -22 -11 -19 18 -31
20 -21 3 5 -10 4 -10 -5 -2 -7 6 -13 21 -14 33 -1 13 -8 21 -20 21 -10 0 -15
-4 -12 -10 3 -5 0 -10 -7 -10 -9 0 -9 -3 2 -10 8 -5 10 -10 5 -10 -6 0 -16 5
-22 11 -8 8 -13 3 -18 -20 -6 -28 -10 -31 -45 -31 -42 0 -90 -17 -90 -32 0 -5
-4 -7 -9 -3 -5 3 -13 0 -17 -6 -4 -8 -3 -9 4 -5 7 4 12 3 12 -2 0 -18 -30 -34
-65 -34 -28 0 -35 -4 -35 -20 0 -16 -3 -18 -13 -10 -15 13 -30 5 -46 -25 -9
-17 -21 -23 -47 -23 -24 0 -33 -4 -28 -12 4 -7 3 -8 -5 -4 -6 4 -9 11 -6 16 3
5 70 53 148 106 78 53 170 116 205 140 l64 44 28 -22 c15 -13 33 -33 39 -46z
m76 -52 c3 -5 1 -10 -4 -10 -6 0 -11 5 -11 10 0 6 2 10 4 10 3 0 8 -4 11 -10z
m105 -86 c0 -2 -9 0 -20 6 -11 6 -20 13 -20 16 0 2 9 0 20 -6 11 -6 20 -13 20
-16z m-548 -56 c-7 -7 -12 -8 -12 -2 0 14 12 26 19 19 2 -3 -1 -11 -7 -17z
m629 -15 c13 -16 12 -17 -3 -4 -10 7 -18 15 -18 17 0 8 8 3 21 -13z m-763 -48
c1 -13 -3 -27 -10 -31 -7 -5 -9 0 -6 14 5 18 3 19 -12 9 -10 -6 -16 -15 -13
-21 3 -5 1 -6 -5 -2 -7 4 -12 2 -12 -3 0 -6 -3 -10 -7 -10 -21 3 -33 -3 -33
-17 0 -8 -4 -13 -8 -10 -5 3 -26 -6 -46 -20 -21 -14 -39 -24 -41 -22 -2 2 40
33 93 70 53 37 97 67 97 67 0 1 2 -10 3 -24z m-123 -175 c10 -11 16 -20 13
-20 -3 0 -13 9 -23 20 -10 11 -16 20 -13 20 3 0 13 -9 23 -20z"/>
<path d="M2524 3624 c-18 -14 -18 -15 4 -4 12 6 22 13 22 15 0 8 -5 6 -26 -11z"/>
<path d="M1563 3603 c8 -12 371 -323 394 -336 12 -7 128 61 119 70 -2 2 -28
-11 -58 -30 l-53 -35 -165 140 c-211 178 -246 206 -237 191z"/>
<path d="M2474 3594 c-18 -14 -18 -15 4 -4 12 6 22 13 22 15 0 8 -5 6 -26 -11z"/>
<path d="M2290 3477 c-80 -50 -159 -103 -175 -116 l-30 -23 30 18 c63 37 310
197 320 205 22 21 -8 4 -145 -84z"/>
<path d="M1805 2915 c-428 -297 -585 -408 -585 -412 0 -9 905 -923 911 -921 8
3 179 169 512 496 182 178 216 216 204 225 -80 64 -514 420 -671 551 -110 91
-204 166 -210 166 -6 0 -78 -48 -161 -105z"/>
</g>
</svg>
